<svg width="22" height="22" viewBox="0 0 22 22" fill="none" xmlns="http://www.w3.org/2000/svg">
<path d="M11 1.83331C9.18699 1.83331 7.41471 2.37093 5.90726 3.37817C4.39981 4.38542 3.22489 5.81706 2.53109 7.49205C1.83728 9.16704 1.65575 11.0101 2.00945 12.7883C2.36315 14.5665 3.23619 16.1998 4.51817 17.4818C5.80015 18.7638 7.4335 19.6368 9.21166 19.9905C10.9898 20.3442 12.8329 20.1627 14.5079 19.4689C16.1829 18.7751 17.6145 17.6002 18.6218 16.0927C19.629 14.5853 20.1666 12.813 20.1666 11C20.1666 9.7962 19.9295 8.6042 19.4689 7.49205C19.0082 6.3799 18.333 5.36937 17.4818 4.51817C16.6306 3.66696 15.6201 2.99175 14.5079 2.53108C13.3958 2.07042 12.2038 1.83331 11 1.83331ZM11 18.3333C9.54959 18.3333 8.13176 17.9032 6.9258 17.0974C5.71984 16.2916 4.77991 15.1463 4.22487 13.8063C3.66982 12.4663 3.5246 10.9918 3.80756 9.56932C4.09052 8.14679 4.78895 6.84012 5.81453 5.81453C6.84012 4.78894 8.14679 4.09051 9.56932 3.80755C10.9918 3.5246 12.4663 3.66982 13.8063 4.22486C15.1463 4.77991 16.2916 5.71984 17.0974 6.9258C17.9032 8.13176 18.3333 9.54958 18.3333 11C18.3333 12.9449 17.5607 14.8102 16.1854 16.1854C14.8102 17.5607 12.9449 18.3333 11 18.3333Z" fill="#A5A4A9"/>
<path d="M11 8.25002C11.5062 8.25002 11.9166 7.83961 11.9166 7.33335C11.9166 6.82709 11.5062 6.41669 11 6.41669C10.4937 6.41669 10.0833 6.82709 10.0833 7.33335C10.0833 7.83961 10.4937 8.25002 11 8.25002Z" fill="#A5A4A9"/>
<path d="M11 9.16669C10.7569 9.16669 10.5237 9.26326 10.3518 9.43517C10.1799 9.60708 10.0833 9.84024 10.0833 10.0834V14.6667C10.0833 14.9098 10.1799 15.143 10.3518 15.3149C10.5237 15.4868 10.7569 15.5834 11 15.5834C11.2431 15.5834 11.4763 15.4868 11.6482 15.3149C11.8201 15.143 11.9166 14.9098 11.9166 14.6667V10.0834C11.9166 9.84024 11.8201 9.60708 11.6482 9.43517C11.4763 9.26326 11.2431 9.16669 11 9.16669Z" fill="#A5A4A9"/>
</svg>
